<svg xmlns="http://www.w3.org/2000/svg" fill="none" viewBox="0 0 320.6 96">
  <g clip-path="url(#a)">
    <path fill="#000" fill-rule="evenodd" d="M107.89 33.05h7.08v-6.3c0-4.26 1.11-7.23 3.24-9.11 2.22-1.87 5.63-2.64 10.07-2.64 1.19 0 2.65.09 4.1.17v6.55c-7.51-.51-9.47.68-9.47 5.36v5.96h9.38v6.21h-9.38v39.49h-7.93V39.27h-7.08v-6.21l-.01-.01Zm58.71 45.71v-6.38h-.17c-3.24 4.51-7.25 7.4-13.82 7.4-9.47 0-15.53-5.7-15.53-15.23V33.06h7.93v31.07c0 5.79 3.67 9.19 9.98 9.19 7 0 11.52-5.36 11.52-12.43V33.06h7.93v45.7h-7.85.01Zm20.41-39.24h.26c3.33-4.6 7.85-7.57 14.5-7.57 9.56 0 15.44 5.36 15.44 14.89v31.92h-7.85V47.78c0-5.87-3.84-9.19-10.07-9.19-7.08 0-12.2 5.02-12.2 12.34v27.83h-7.93V33.05h7.85v6.47Zm42.76 0h.25c3.33-4.6 7.85-7.57 14.5-7.57 9.56 0 15.44 5.36 15.44 14.89v31.92h-7.85V47.78c0-5.87-3.84-9.19-10.07-9.19-7.08 0-12.2 5.02-12.2 12.34v27.83h-7.94V33.05h7.85v6.47h.02Zm43.19 12.58h26.53c-.43-8.77-4.95-14.04-12.88-14.04-7.93 0-12.63 5.96-13.65 14.04Zm-8.28 3.83c0-13.28 8.79-24 21.93-24 6.83 0 12.11 2.64 15.7 7.06 3.75 4.51 5.63 11.06 5.63 18.81h-35.15c.6 8.94 5.46 15.75 14.33 15.75 6.31 0 10.66-2.98 12.12-7.83H307c-2.05 8.51-9.39 14.3-19.96 14.3-14.08 0-22.35-10.72-22.35-24.09h-.01Zm47.97 22.82h7.93V15.43h-7.93v63.32Z" clip-rule="evenodd"/>
    <path fill="#FB5C65" fill-rule="evenodd" d="M48 0C21.49 0 0 21.49 0 48s21.49 48 48 48 48-21.49 48-48S74.51 0 48 0Zm0 88.57C25.59 88.57 7.43 70.41 7.43 48S25.59 7.43 48 7.43 88.57 25.59 88.57 48 70.41 88.57 48 88.57Z" clip-rule="evenodd"/>
    <path fill="#FB5C65" d="M30.1902 59.99c6.6219 0 11.99-5.3681 11.99-11.99s-5.3681-11.99-11.99-11.99-11.99 5.3681-11.99 11.99 5.3681 11.99 11.99 11.99Zm23.86-3.12c4.8987 0 8.87-3.9712 8.87-8.87s-3.9713-8.87-8.87-8.87c-4.8988 0-8.87 3.9712-8.87 8.87s3.9712 8.87 8.87 8.87Zm17.8102-2.93c3.2806 0 5.94-2.6594 5.94-5.94s-2.6594-5.94-5.94-5.94-5.94 2.6594-5.94 5.94 2.6594 5.94 5.94 5.94Z"/>
  </g>
  <defs>
    <clipPath id="a">
      <path fill="#fff" d="M0 0h320.59v96H0z"/>
    </clipPath>
  </defs>
</svg>
