<svg xmlns="http://www.w3.org/2000/svg" fill="none" viewBox="0 0 1290 206.28">
  <path fill="#293D3D" fill-rule="evenodd" d="M1242.17 35.73c11.01 0 12.11-4.06 13.2-8.1l.73-2.69h8.97l-13.95 48.71h-17.9l-13.95-48.71h8.97l.73 2.69c1.09 4.04 2.19 8.1 13.2 8.1zm4.41 24.97c.48-2.1 1-4.21 1.55-6.32l-.01-.01 3.52-13.01c-1.73 1.73-6.06 2.27-9.48 2.27-3.42 0-7.65-.45-9.48-2.27l3.52 13.02c.55 2.11 1.07 4.21 1.55 6.32.48 2.1.86 3.77 1.12 5.02h6.59c.26-1.2336.64-2.8926 1.11-4.9871l.01-.0329z" clip-rule="evenodd"/>
  <path fill="#293D3D" fill-rule="evenodd" d="M1242.17 0c-26.41 0-47.83 21.41-47.83 47.83 0 26.42 21.41 47.83 47.83 47.83 26.42 0 47.83-21.41 47.83-47.83C1290 21.41 1268.59 0 1242.17 0zm0 88.24c-22.28 0-40.41-18.13-40.41-40.41 0-22.28 18.13-40.41 40.41-40.41 22.28 0 40.41 18.13 40.41 40.41 0 22.28-18.13 40.41-40.41 40.41zM32.52 157.36c3.66-13.53 7.35-27.14 44.25-27.14 36.898 0 40.58 13.609 44.24 27.138v.002l2.45 9.02h30.08L106.76 3.08008H46.77L0 166.37h30.08l2.44-9.02v.01zM56.8 67.7001c1.84-7.07 3.57-14.13 5.19-21.19 1.62-7.06 2.87-12.66 3.75-16.84h22.07c.88 4.18 2.14 9.78 3.75 16.84 1.61 7.06 3.34 14.12 5.18 21.19l11.81 43.6199c-5.82-5.79-20.35-7.6-31.78-7.6s-25.65 1.5-31.78 7.61L56.8 67.7001z" clip-rule="evenodd"/>
  <path fill="#293D3D" d="M189.37 3.08008h-28.48V166.38h28.48V3.08008zm301.65 0h-28.48V166.38h28.48v-49.83c0-8.07.39-14.83 1.18-20.2999.8-5.46 2.14-10.16 4.04-14.12 2.05-4.12 4.9-7.8 8.54-11.04 3.64-3.24 8.46-4.86 14.48-4.86 5.22 0 9.33 1.07 12.34 3.2 3 2.13 5.3 4.95 6.88 8.43 1.42 3.17 2.25 6.76 2.49 10.8.24 4.04.36 8.75.36 14.1199v63.6h28.48V95.6601c0-7.44-.36-13.84-1.07-19.23-.71-5.37-2.25-10.35-4.63-14.95-3.16-6.01-7.55-10.99-13.17-14.95-5.62-3.96-13.02-5.94-22.19-5.94-5.07 0-9.54.59-13.41 1.79-3.88 1.18-7.28 2.84-10.21 4.98-2.93 2.13-5.5 4.66-7.71 7.59-2.22 2.94-4.19 6.13-5.93 9.62h-.47V3.08008z"/>
  <path fill="#293D3D" fill-rule="evenodd" d="M308.52 153.09c-1.27 1.9-3.21 3.84-5.81 5.81-2.61 1.99-5.78 3.73-9.49 5.22-3.72 1.51-7.91 2.77-12.58 3.8-4.66 1.02-9.69 1.55-15.07 1.55-9.65 0-18.27-1.58-25.87-4.75-7.6-3.16-14.05-7.59-19.34-13.29-5.3-5.7-9.38-12.5-12.22-20.42-2.85-7.9-4.27-16.52-4.27-25.86 0-9.3399 1.38-17.7199 4.15-25.6299 2.77-7.92 6.68-14.76 11.75-20.53 5.06-5.78 11.15-10.28 18.28-13.53 7.12-3.24 15.1-4.87 23.97-4.87s16.65 1.47 23.38 4.39 12.34 6.88 16.85 11.86c4.51 4.99 7.91 10.81 10.21 17.45 2.29 6.64 3.44 13.61 3.44 20.89 0 3.64-.12 7.3599-.36 11.1499-.24 3.79-.52 6.73-.83 8.78h-81.88c.79 8.55 4.04 15.55 9.73 21 5.69 5.46 14 8.19 24.92 8.19 8.07 0 15.62-1.38 22.67-4.15 7.04-2.77 12.85-6.36 17.44-10.81h.95v23.74l-.02.01zm-27.06-80.0999c4.428 5.1381 6.798 12.2247 7.12 21.24h-55.77c.79-8.07 3.75-14.91 8.9-20.53 5.13-5.62 11.82-8.43 20.05-8.43 8.71 0 15.27 2.58 19.7 7.72zm76.89-29.32h-27.53V206.28h28.48v-57.92h.47c2.85 6.81 7.28 12.03 13.29 15.66 6.02 3.65 13.39 5.47 22.08 5.47 8.69 0 16.33-1.78 22.9-5.34 6.56-3.57 12.06-8.39 16.49-14.48 4.43-6.09 7.71-13.18 9.85-21.25 2.13-8.06 3.2-16.61 3.2-25.63 0-8.2299-.99-16.0999-2.96-23.6099-1.98-7.52-5.03-14.13-9.14-19.83-4.11-5.69-9.29-10.24-15.54-13.64-6.25-3.4-13.64-5.11-22.19-5.11-5.07 0-9.61.64-13.65 1.9-4.04 1.26-7.59 3.01-10.68 5.21-3.09 2.22-5.77 4.75-8.07 7.6-2.3 2.85-4.16 5.78-5.58 8.78h-.47l-.95-20.42zm1.3 77.6199c-1.34-4.59-2.01-9.57-2.01-14.95l-.01.01c0-5.22.71-10.2799 2.13-15.1899s3.48-9.18 6.17-12.82c2.69-3.64 6.02-6.57 9.97-8.78 3.96-2.22 8.55-3.32 13.77-3.32 4.91 0 9.18.99 12.82 2.96 3.64 1.98 6.64 4.74 9.02 8.31 2.38 3.57 4.15 7.72 5.34 12.46 1.19 4.74 1.78 9.98 1.78 15.1899 0 5.21-.63 10.17-1.9 14.83-1.26 4.67-3.16 8.78-5.69 12.34-2.53 3.55-5.73 6.37-9.61 8.42-3.88 2.07-8.43 3.09-13.65 3.09-4.75 0-9.02-.95-12.82-2.85-3.8-1.9-6.96-4.51-9.49-7.83-2.54-3.32-4.48-7.28-5.82-11.87z" clip-rule="evenodd"/>
  <path fill="#293D3D" d="M1177.91 107.64c2.92 2.77 5.26 6.05 7 9.85l-.01-.01c1.74 3.8 2.61 8.31 2.61 13.52 0 5.55-1.07 10.66-3.2 15.32-2.14 4.66-5.14 8.7-9.02 12.1-3.88 3.4-8.51 6.09-13.88 8.07-5.38 1.97-11.4 2.96-18.04 2.96-9.66 0-17.77-1.36-24.33-4.04-6.57-2.69-12.3-6.65-17.21-11.87V129.1h.95c2.06 1.89 4.47 3.75 7.24 5.57 2.77 1.83 5.81 3.45 9.14 4.87 3.32 1.43 6.8 2.58 10.44 3.45 3.64.87 7.35 1.3 11.15 1.3 6.33 0 10.96-1.11 13.89-3.32 2.93-2.22 4.39-5.07 4.39-8.55 0-3-1.07-5.41-3.2-7.24-2.14-1.82-5.82-3.59-11.04-5.34l-13.05-4.51c-4.43-1.57-8.54-3.32-12.34-5.21-3.8-1.91-7.12-4.28-9.97-7.13-2.84-2.84-5.06-6.2499-6.64-10.1999-1.58-3.96-2.37-8.7-2.37-14.24 0-5.54 1.07-10.65 3.2-15.31s5.14-8.66 9.02-11.98c3.87-3.32 8.54-5.94 14-7.83 5.46-1.9 11.52-2.85 18.16-2.85 9.02 0 16.89 1.35 23.62 4.04 4.39 1.76 7.93 4.07 11.07 6.63v25.21h-1.05c-2.99-2.11-6.29-4.14-10.37-5.97-6.33-2.85-13.22-4.28-20.65-4.28-6.02 0-10.56 1.08-13.65 3.21s-4.63 5.02-4.63 8.19 1.07 5.74 3.2 7.72c2.14 1.98 5.42 3.76 9.85 5.34l12.58 4.5c4.43 1.75 8.66 3.57 12.7 5.4699 4.03 1.89 7.51 4.23 10.44 7zm-568.44 58.74h29.43v-65.76h62.2V74.5201h-62.2v-44.39h69.54V3.08008h-98.97V166.38zM871.73 42.4901c3.53-1.26 7.68-1.9 12.44-1.9l-.01.01c3.71 0 6.75.32 9.13.95 2.38.63 4.54 1.35 6.48 2.13v25.87h-1.06c-2.47-.79-4.85-1.38-7.14-1.78-2.3-.4-5.56-.6-9.79-.6-6.71 0-12.26 1.71-16.67 5.11-4.41 3.4-7.76 7.87-10.05 13.4-1.41 3.32-2.38 7.36-2.91 12.11-.53 4.7399-.79 10.4399-.79 17.0799v51.5h-28.48V43.6601h27.53l.95 20.89h.53c1.23-3.32 2.73-6.4 4.49-9.25 1.76-2.85 3.88-5.38 6.35-7.6 2.48-2.21 5.47-3.94 9-5.21zm209.8 14.71c-3.32-5.53-7.67-9.69-13.05-12.46-5.38-2.76-12.03-4.15-19.94-4.15-10.29 0-18.35 2.49-24.21 7.47-5.86 4.98-10.53 11.51-14 19.58h-.47c-1.74-8.39-5.62-14.99-11.63-19.82-6.02-4.83-13.45-7.24-22.31-7.24-9.81 0-17.45 2.25-22.9 6.76-5.46 4.51-9.77 10.25-12.94 17.21h-.47l-1.19-20.89h-27.3V166.37h28.48v-49.6c0-7.6.27-14.08.83-19.4599.55-5.38 1.46-9.89 2.73-13.53 1.74-5.06 4.35-9.34 7.83-12.82 3.48-3.48 8.22-5.22 14.24-5.22 7.28 0 12.5 2.69 15.66 8.07 2.05 3.48 3.32 7.55 3.8 12.22.48 4.67.71 9.94.71 15.7899v64.55h28.48v-49.6c0-7.6.28-14.08.83-19.4599.55-5.38 1.46-9.89 2.73-13.53 1.74-5.06 4.35-9.34 7.83-12.82 3.48-3.48 8.23-5.22 14.24-5.22 7.27 0 12.5 2.69 15.66 8.07 2.05 3.48 3.32 7.55 3.8 12.22.47 4.67.71 9.94.71 15.7899v64.55h28.48V97.3201c0-8.39-.32-15.87-.95-22.43-.63-6.56-2.53-12.46-5.7-17.68l.02-.01z"/>
  <path fill="#293D3D" fill-rule="evenodd" d="M780.99 43.7901c6.65 2.14 12.26 5.66 16.85 10.56 3.8 3.96 6.53 8.75 8.19 14.36 1.66 5.62 2.49 13.49 2.49 23.62V166.34h-26.35l-.71-16.14h-.47c-2.6 5.54-6.41 10.13-11.44 13.76-5.03 3.64-11.84 5.47-20.43 5.47-4.7 0-9.29-.68-13.74-2.02-4.46-1.34-8.48-3.47-12.04-6.41-3.57-2.92-6.45-6.64-8.64-11.15-2.2-4.51-3.29-10-3.29-16.49 0-5.53.98-10.32 2.92-14.36 1.95-4.02 4.82-7.47 8.64-10.32 3.81-2.85 8.48-5.25 13.99-7.23 5.52-1.9799 11.92-3.6799 19.22-5.1099 4.87-.94 8.92-1.85 12.17-2.72 3.24-.86 5.79-1.86 7.66-2.96 1.86-1.11 3.16-2.41 3.89-3.92.73-1.5 1.1-3.36 1.1-5.58 0-1.57-.29-3.23-.85-4.98-.57-1.74-1.71-3.36-3.41-4.86-1.71-1.5-4.14-2.77-7.3-3.8-3.16-1.03-7.42-1.54-12.77-1.54-4.05 0-8.11.43-12.16 1.3-4.06.87-7.91 2.1-11.56 3.68-3.65 1.58-7.02 3.36-10.1 5.34s-5.7 4.08-7.81 6.29h-.95v-24.21c3.56-4.59 9.16-8.7 16.78-12.34 7.62-3.63 17.03-5.46 28.22-5.46 7.79 0 15.08 1.08 21.9 3.21zm-1.61 87.4699c1.07-3.01 1.61-6.8 1.61-11.4l.01.02v-9.97c-1.99 1.11-4.43 2.1-7.31 2.96-2.9.87-6.73 1.86-11.52 2.97-6.77 1.42-12.21 3.28-16.34 5.57-4.12 2.3-6.19 6.06-6.19 11.27 0 4.43 1.53 7.83 4.58 10.21 3.05 2.37 7.23 3.56 12.51 3.56 3.79 0 7.38-.75 10.77-2.26 3.38-1.49 6.06-3.43 8.04-5.81 1.49-1.74 2.77-4.12 3.84-7.12z" clip-rule="evenodd"/>
  <path fill="#293D3D" d="M1194.74 152.538h4.22v13.833h3.42v-13.833h4.23v-3.028h-11.87v3.028zm29.2 6.07c-.02.544-.02 1.075-.02 1.594h.01l-.08 6.181h3.39v-16.861h-4.18l-3.62 9.036c-.12.3-.23.599-.34.904-.03.098-.07.196-.1.295-.08.24-.16.475-.24.703-.05.161-.11.318-.16.472-.13.37-.25.717-.34 1.05l-.06.174c-.07.26-.14.486-.19.679h-.05c-.04-.117-.07-.243-.12-.379-.04-.149-.09-.311-.15-.486-.06-.163-.11-.332-.17-.505-.06-.182-.12-.368-.18-.558-.12-.371-.26-.767-.39-1.174-.14-.408-.29-.804-.43-1.175l-3.62-9.036h-4.18v16.861h3.39l-.07-6.181c0-.489-.01-1-.03-1.535v-.059c-.01-.544-.03-1.063-.05-1.57-.01-.507-.03-.964-.06-1.397-.01-.119-.01-.233-.02-.344-.02-.28-.03-.531-.04-.744h.05c.17.544.39 1.224.67 2.04.27.816.59 1.681.95 2.583l2.94 7.207h3.05l2.95-7.207c.38-.939.7-1.817.96-2.608.12-.366.23-.703.33-1.014.12-.371.23-.704.33-1.001h.04c-.01.135-.02.282-.02.443-.01.194-.02.408-.04.645-.02.433-.05.89-.06 1.397-.01.494-.04 1.026-.05 1.57z"/>
</svg>
