<svg xmlns="http://www.w3.org/2000/svg" viewBox="0 -0.02 115 32.77">
  <path fill="#1D2630" d="M25 24.6118837V8.4551201h9.6030341v2.5486726h-6.9405815v4.1643489h5.4614412v2.5259166h-5.4614412v6.9178255H25Zm11.9013906 0V8h2.5031606v16.6118837h-2.5031606Zm16.9759798-5.6890013c0 3.2996208-2.5941846 5.9165613-5.9620733 5.9165613-3.3678888 0-5.9620733-2.6169405-5.9620733-5.9165613 0-3.2996207 2.5941845-5.9165613 5.9620733-5.9165613 3.3678887 0 5.9620733 2.6169406 5.9620733 5.9165613Zm-9.3982301 0c0 2.0252845 1.4108723 3.5954488 3.4361568 3.5954488 2.0025284 0 3.4134008-1.5701643 3.4134008-3.5954488 0-2.0252844-1.4108724-3.5954488-3.4134008-3.5954488-2.0252845 0-3.4361568 1.5701644-3.4361568 3.5954488Zm11.9241467 5.6890013V13.2338812h2.5031605v1.5246523c.4323641-.8647282 1.5929204-1.6384324 2.8672567-1.6384324.4778761 0 .8874842.0682681 1.1605562.1365361l-.3640961 2.4348925c-.22756-.091024-.5916561-.136536-.9785082-.136536-1.0012642 0-2.1845765.5689001-2.6852086 1.7522124v7.3046776H56.403287Zm7.6687737-5.6890013c0-3.3451327 2.4804045-5.9165613 5.9393173-5.9165613 2.9810367 0 5.4841972 1.9797725 5.4841972 5.6434893 0 .250316 0 .4551201-.022756.8192161h-8.94311c.1137801 1.8659925 1.6156764 3.0948167 3.5044248 3.0948167 1.5929204 0 2.6624526-.7281921 3.2541087-1.7294563l1.9115045 1.3653603c-1.0240203 1.6156763-2.7989887 2.6396965-5.1883692 2.6396965-3.4589128 0-5.9393173-2.4576485-5.9393173-5.9165613Zm5.8482933-3.8002528c-1.4563843 0-2.9355247.8419722-3.2768647 2.5259165h6.3261694c-.2730721-1.6384323-1.5929204-2.5259165-3.0493047-2.5259165Zm8.1466498 9.4892541V13.2338812h2.5031605v1.2060682c.7737042-.9557522 2.0025285-1.4336283 3.3451328-1.4336283 2.7307206 0 4.460177 1.8659924 4.460177 4.8015171v6.8040455h-2.5031606v-6.3944374c0-1.7977244-.9102402-2.9355247-2.5031605-2.9355247-1.3426043 0-2.3211125.7509482-2.7989887 1.7977244v7.5322377h-2.5031605Zm24.0075852-2.9127687c-.978508 1.8887485-2.9582805 3.1403287-5.3021491 3.1403287-3.4134007 0-6.0075853-2.5486725-6.0075853-5.9165613 0-3.3678887 2.5941846-5.9165613 6.0075853-5.9165613 2.3438686 0 4.3236411 1.2515803 5.3021491 3.1403287l-2.1845764 1.1833123c-.5461441-1.1605563-1.6611883-2.0025285-3.1175727-2.0025285-2.0252844 0-3.4589127 1.5701644-3.4589127 3.5954488 0 2.0252845 1.4336283 3.5954488 3.4589127 3.5954488 1.4563844 0 2.5714286-.8419722 3.1175727-2.0025284l2.1845764 1.1833122Zm1.501896-2.7762326c0-3.3451327 2.480405-5.9165613 5.939318-5.9165613 2.981036 0 5.484197 1.9797725 5.484197 5.6434893 0 .250316 0 .4551201-.022756.8192161h-8.94311c.11378 1.8659925 1.615676 3.0948167 3.504425 3.0948167 1.59292 0 2.662452-.7281921 3.254109-1.7294563l1.911504 1.3653603c-1.02402 1.6156763-2.798989 2.6396965-5.188369 2.6396965-3.458913 0-5.939318-2.4576485-5.939318-5.9165613Zm5.848294-3.8002528c-1.456385 0-2.935525.8419722-3.276865 2.5259165h6.326169c-.273072-1.6384323-1.59292-2.5259165-3.049304-2.5259165ZM7.79032258 28.7903226v3.1612903c0 .4364831-.3538395.7903226-.79032258.7903226s-.79032258-.3538395-.79032258-.7903226v-3.1612903L.66137174 23.2420169C.23790257 22.8185477 0 22.2442002 0 21.6453242V7c0-3.86599319 3.13400681-7 7-7 3.8659932 0 7 3.13400681 7 7v14.6453242c0 .598876-.2379026 1.1732235-.6613717 1.5966927l-5.54830572 5.5483057ZM1.69354839 12.3179498v3.374707l4.51612903 4.5110343v-3.374707l-4.51612903-4.5110343Zm0-2.60916398 4.51612903 4.51103428V7.11290323c0-.43648308.3538395-.79032258.79032258-.79032258s.79032258.3538395.79032258.79032258V26.1935484l4.11930592-4.1193059c.2540816-.2540816.3968231-.5986902.3968231-.9580157V7c0-2.93067227-2.37577933-5.30645161-5.3064516-5.30645161S1.69354839 4.06932773 1.69354839 7v2.70878582Zm0 8.59303498v2.814406c0 .3593255.14274151.7039341.39682311.9580157l4.11930592 4.1193059V22.812855l-4.51612903-4.5110342Z"/>
</svg>
